<svg width="326" height="321" viewBox="0 0 326 321" fill="none" xmlns="http://www.w3.org/2000/svg">
<g clip-path="url(#clip0_264_116)">
<path d="M45.3295 44.1792L9.89453 81.2248C11.045 85.1365 14.7266 88.1277 19.0984 88.1277C20.9392 88.1277 22.5499 87.6675 23.9304 86.7471L63.9673 63.9675L45.3295 44.1792Z" fill="#EA4335"/>
<path d="M81.226 37.736L63.9688 27.8418L44.6406 44.869L64.1989 63.967L81.4561 54.303C84.4474 52.6923 86.5183 49.4709 86.5183 46.0195C86.2882 42.568 84.2173 39.3466 81.226 37.736Z" fill="#FBBC04"/>
<path d="M9.89514 10.8149C9.66504 11.5052 9.66504 12.4256 9.66504 13.346V78.9236C9.66504 79.844 9.66504 80.5343 9.89514 81.4547L46.7106 45.3295L9.89514 10.8149Z" fill="#4285F4"/>
<path d="M45.5596 46.0199L63.9673 27.8422L24.1605 5.29269C22.78 4.3723 20.9392 3.91211 19.0984 3.91211C14.7266 3.91211 10.8149 6.90337 9.89453 10.815L45.5596 46.0199Z" fill="#34A853"/>
</g>
<path d="M132.274 46.632C132.274 50.7188 131.061 53.9746 128.636 56.3995C125.912 59.2875 122.329 60.7315 117.888 60.7315C113.638 60.7315 110.041 59.2603 107.099 56.3178C104.156 53.3752 102.685 49.7516 102.685 45.4468C102.685 41.142 104.156 37.5184 107.099 34.5758C110.041 31.6333 113.638 30.1621 117.888 30.1621C120.04 30.1621 122.07 30.5435 123.977 31.3064C125.885 32.0693 127.451 33.1455 128.677 34.535L125.98 37.2323C125.081 36.1425 123.909 35.2979 122.465 34.6985C121.048 34.0718 119.523 33.7585 117.888 33.7585C114.7 33.7585 112.003 34.8619 109.796 37.0688C107.616 39.3029 106.527 42.0956 106.527 45.4468C106.527 48.798 107.616 51.5907 109.796 53.8248C112.003 56.0317 114.7 57.1351 117.888 57.1351C120.803 57.1351 123.228 56.3178 125.163 54.683C127.097 53.0483 128.214 50.8005 128.514 47.9398H117.888V44.4251H132.069C132.205 45.188 132.274 45.9236 132.274 46.632ZM134.844 50.0649C134.844 46.9862 135.811 44.4387 137.746 42.4226C139.707 40.4064 142.173 39.3983 145.143 39.3983C148.113 39.3983 150.565 40.4064 152.499 42.4226C154.461 44.4387 155.442 46.9862 155.442 50.0649C155.442 53.1709 154.461 55.7184 152.499 57.7073C150.565 59.7234 148.113 60.7315 145.143 60.7315C142.173 60.7315 139.707 59.7234 137.746 57.7073C135.811 55.6911 134.844 53.1437 134.844 50.0649ZM138.604 50.0649C138.604 52.2173 139.231 53.961 140.484 55.2961C141.737 56.6311 143.29 57.2986 145.143 57.2986C146.996 57.2986 148.549 56.6311 149.802 55.2961C151.055 53.961 151.682 52.2173 151.682 50.0649C151.682 47.9398 151.055 46.2097 149.802 44.8746C148.521 43.5124 146.968 42.8312 145.143 42.8312C143.317 42.8312 141.764 43.5124 140.484 44.8746C139.231 46.2097 138.604 47.9398 138.604 50.0649ZM157.713 50.0649C157.713 46.9862 158.68 44.4387 160.614 42.4226C162.576 40.4064 165.042 39.3983 168.012 39.3983C170.981 39.3983 173.433 40.4064 175.368 42.4226C177.33 44.4387 178.31 46.9862 178.31 50.0649C178.31 53.1709 177.33 55.7184 175.368 57.7073C173.433 59.7234 170.981 60.7315 168.012 60.7315C165.042 60.7315 162.576 59.7234 160.614 57.7073C158.68 55.6911 157.713 53.1437 157.713 50.0649ZM161.473 50.0649C161.473 52.2173 162.099 53.961 163.353 55.2961C164.606 56.6311 166.159 57.2986 168.012 57.2986C169.864 57.2986 171.417 56.6311 172.671 55.2961C173.924 53.961 174.551 52.2173 174.551 50.0649C174.551 47.9398 173.924 46.2097 172.671 44.8746C171.39 43.5124 169.837 42.8312 168.012 42.8312C166.186 42.8312 164.633 43.5124 163.353 44.8746C162.099 46.2097 161.473 47.9398 161.473 50.0649ZM190.717 57.2986C192.569 57.2986 194.082 56.6311 195.253 55.2961C196.479 53.961 197.092 52.2173 197.092 50.0649C197.092 47.967 196.479 46.2369 195.253 44.8746C194.054 43.5124 192.542 42.8312 190.717 42.8312C188.919 42.8312 187.406 43.5124 186.18 44.8746C184.954 46.2369 184.341 47.967 184.341 50.0649C184.341 52.1901 184.954 53.9202 186.18 55.2552C187.406 56.6175 188.919 57.2986 190.717 57.2986ZM190.594 69.5591C189.477 69.5591 188.428 69.4092 187.447 69.1095C186.466 68.8371 185.567 68.442 184.75 67.9243C183.96 67.4067 183.279 66.7937 182.707 66.0853C182.134 65.3769 181.699 64.5868 181.399 63.7149L184.954 62.2437C185.363 63.4152 186.071 64.3552 187.08 65.0636C188.088 65.7719 189.259 66.1261 190.594 66.1261C192.638 66.1261 194.231 65.5131 195.376 64.2871C196.52 63.061 197.092 61.3718 197.092 59.2194V57.2986H196.929C196.22 58.3612 195.253 59.2058 194.027 59.8324C192.828 60.4318 191.521 60.7315 190.104 60.7315C187.488 60.7315 185.24 59.7098 183.361 57.6664C181.508 55.5685 180.581 53.0347 180.581 50.0649C180.581 47.0952 181.508 44.5749 183.361 42.5043C185.24 40.4336 187.488 39.3983 190.104 39.3983C191.521 39.3983 192.828 39.7116 194.027 40.3383C195.253 40.9377 196.22 41.7687 196.929 42.8312H197.092V40.0522H200.689V59.2194C200.689 62.4344 199.776 64.9546 197.95 66.78C196.098 68.6327 193.646 69.5591 190.594 69.5591ZM209.033 30.816V60.0776H205.273V30.816H209.033ZM222.406 60.7315C219.463 60.7315 217.038 59.7234 215.131 57.7073C213.224 55.6911 212.27 53.1437 212.27 50.0649C212.27 47.0134 213.197 44.4796 215.049 42.4634C216.902 40.42 219.272 39.3983 222.16 39.3983C225.13 39.3983 227.487 40.3655 229.231 42.2999C231.002 44.2071 231.887 46.8908 231.887 50.351L231.846 50.7597H216.112C216.166 52.7214 216.82 54.3016 218.074 55.5004C219.327 56.6992 220.825 57.2986 222.569 57.2986C224.967 57.2986 226.847 56.0998 228.209 53.7022L231.56 55.3369C230.661 57.0261 229.408 58.3475 227.8 59.3011C226.22 60.2547 224.422 60.7315 222.406 60.7315ZM216.398 47.6537H227.882C227.773 46.2642 227.201 45.1199 226.166 44.2208C225.157 43.2944 223.795 42.8312 222.079 42.8312C220.662 42.8312 219.436 43.2672 218.401 44.139C217.392 45.0109 216.725 46.1824 216.398 47.6537ZM248.719 48.2258V60.0776H244.959V30.816H254.931C257.465 30.816 259.617 31.6606 261.388 33.3498C263.186 35.039 264.086 37.0961 264.086 39.5209C264.086 42.0002 263.186 44.0709 261.388 45.7329C259.645 47.3949 257.492 48.2258 254.931 48.2258H248.719ZM248.719 34.4124V44.6294H255.013C256.511 44.6294 257.751 44.1254 258.732 43.1173C259.74 42.1092 260.244 40.9104 260.244 39.5209C260.244 38.1586 259.74 36.9735 258.732 35.9654C257.751 34.93 256.511 34.4124 255.013 34.4124H248.719ZM271.333 30.816V60.0776H267.573V30.816H271.333ZM278.453 53.9474C278.453 54.9282 278.862 55.7456 279.679 56.3995C280.524 57.0534 281.504 57.3803 282.622 57.3803C284.202 57.3803 285.605 56.7946 286.831 55.623C288.084 54.4514 288.711 53.0755 288.711 51.4953C287.539 50.569 285.905 50.1058 283.807 50.1058C282.281 50.1058 281 50.4736 279.965 51.2092C278.957 51.9449 278.453 52.8576 278.453 53.9474ZM283.316 39.3983C286.095 39.3983 288.289 40.1476 289.896 41.6461C291.504 43.1173 292.307 45.1471 292.307 47.7354V60.0776H288.711V57.2986H288.547C286.994 59.5872 284.924 60.7315 282.335 60.7315C280.129 60.7315 278.276 60.0776 276.777 58.7699C275.306 57.4621 274.57 55.8273 274.57 53.8657C274.57 51.795 275.347 50.1467 276.9 48.9206C278.48 47.6946 280.578 47.0815 283.194 47.0815C285.428 47.0815 287.267 47.4902 288.711 48.3076V47.4493C288.711 46.1416 288.193 45.0381 287.158 44.139C286.123 43.2127 284.91 42.7495 283.521 42.7495C281.423 42.7495 279.761 43.635 278.535 45.4059L275.224 43.3217C277.05 40.7061 279.747 39.3983 283.316 39.3983ZM314.049 40.0522L301.503 68.9052H297.62L302.279 58.8107L294.024 40.0522H298.111L304.077 54.4378H304.159L309.962 40.0522H314.049Z" fill="#5F6368"/>
<path d="M75.4572 242.1C75.4572 230.608 84.952 225.11 85.2019 224.86C79.9587 217.117 71.461 215.895 68.7117 215.895C61.7163 215.145 54.9708 220.141 51.4718 220.141C47.7228 220.141 42.5067 216.147 36.4812 216.147C28.9832 216.147 21.7405 220.643 17.9915 227.389C9.74646 241.38 15.7421 261.891 23.4873 273.111C27.2363 278.606 31.7324 284.852 37.7281 284.602C43.4739 284.352 45.7233 280.853 52.7187 280.853C59.7141 280.853 61.6837 284.602 67.7092 284.352C73.9576 284.352 77.7066 278.856 81.4501 273.358C85.9462 267.109 87.6985 260.866 87.6985 260.367C87.4486 260.367 75.7071 255.87 75.4572 242.127V242.1ZM64.2156 208.37C67.2148 204.376 69.4588 199.125 68.9616 193.879C64.4655 194.129 58.9643 196.878 55.7206 200.874C52.9713 204.123 50.2248 209.622 50.9746 214.865C55.7206 215.115 60.9719 212.116 64.2156 208.345V208.37ZM129.497 268.191H123.52L120.144 257.688H108.734L105.544 268.191H99.7306L111.141 232.746H118.266L129.497 268.191ZM118.994 253.564L115.995 244.374C115.62 243.436 115.058 241.184 114.094 237.623H113.903L112.219 244.374L109.22 253.564H118.994ZM158.753 255.248C158.753 259.562 157.628 263.127 155.189 265.564C153.124 267.813 150.5 268.94 147.31 268.94C143.934 268.94 141.497 267.816 139.997 265.376V278.878H134.374V251.122L134.183 242.684H139.247L139.622 246.813H139.812C141.714 243.814 144.501 242.312 148.438 242.312C151.437 242.312 154.061 243.436 155.936 245.876C157.837 248.125 158.747 251.315 158.747 255.254L158.753 255.248ZM152.939 255.439C152.939 253.002 152.377 250.937 151.255 249.25C149.943 247.566 148.443 246.813 146.379 246.813C145.066 246.813 143.754 247.375 142.629 248.125C141.453 249.063 140.654 250.395 140.38 251.874C140.19 252.437 140.005 252.999 140.005 253.559V257.873C139.955 259.592 140.557 261.267 141.69 262.562C142.812 263.874 144.314 264.463 146.191 264.463C148.256 264.463 149.94 263.714 151.255 262.026C152.38 260.342 152.939 258.087 152.939 255.463V255.439ZM188.196 255.248C188.196 259.562 187.071 263.127 184.632 265.564C182.567 267.813 179.943 268.94 176.754 268.94C173.377 268.94 170.94 267.816 169.44 265.376H169.25V278.878H163.627V251.122L163.436 242.684H168.5L168.875 246.813H169.065C170.967 243.814 173.754 242.312 177.691 242.312C180.69 242.312 183.314 243.436 185.189 245.876C187.253 248.125 188.188 251.315 188.188 255.254L188.196 255.248ZM182.382 255.439C182.382 253.002 181.82 250.937 180.698 249.25C179.386 247.566 177.886 246.813 175.822 246.813C174.51 246.813 173.197 247.375 172.073 248.125C170.896 249.063 170.097 250.395 169.823 251.874C169.633 252.624 169.633 253.186 169.633 253.559V257.873C169.583 259.592 170.185 261.267 171.317 262.562C172.439 263.874 173.942 264.463 175.819 264.463C177.884 264.463 179.568 263.714 180.883 262.026C181.82 260.342 182.382 258.087 182.382 255.463V255.439ZM221.013 258.248C221.013 261.247 219.889 263.686 217.824 265.561C215.575 267.626 212.385 268.75 208.044 268.75C204.295 268.75 201.106 268 198.854 266.501L200.166 261.812C202.603 263.311 205.417 264.061 208.416 264.061C210.481 264.061 212.165 263.499 213.48 262.562C214.605 261.624 215.382 260.312 215.382 258.623C215.392 257.957 215.264 257.297 215.006 256.683C214.748 256.069 214.365 255.516 213.882 255.058C212.945 254.118 211.258 253.157 209.006 252.246C202.817 249.997 199.628 246.623 199.628 242.119C199.598 240.769 199.868 239.429 200.42 238.196C200.971 236.964 201.79 235.87 202.817 234.993C205.067 233.091 207.881 232.181 211.443 232.181C214.632 232.181 217.419 232.744 219.506 233.866L218.006 238.555C215.935 237.429 213.612 236.849 211.255 236.87C209.191 236.87 207.691 237.432 206.566 238.37C205.629 239.307 205.067 240.271 205.067 241.559C205.067 242.241 205.219 242.914 205.511 243.53C205.802 244.147 206.227 244.691 206.754 245.123C207.691 245.873 209.378 246.808 212.005 247.935C215.004 249.247 217.256 250.559 218.756 252.249C220.44 253.749 221.005 255.813 221.005 258.226L221.013 258.248ZM239.954 247.001H233.765V259.378C233.765 262.567 234.89 264.067 237.142 264.067C238.08 264.067 239.044 264.067 239.579 263.877L239.769 268.191C238.645 268.566 237.145 268.753 235.268 268.753C233.018 268.753 231.329 268.003 230.017 266.688C228.704 265.373 228.115 262.939 228.115 259.75V246.838H224.366V242.524H228.115V238.022L233.738 236.338V242.714H239.927L239.954 247.001ZM268.085 255.248C268.085 259.188 266.96 262.374 264.708 265.028C262.272 267.653 259.27 268.968 255.33 268.968C251.581 268.968 248.579 267.655 246.33 265.219C244.081 262.782 242.953 259.595 242.953 255.841C242.953 251.901 244.078 248.715 246.33 246.061C248.579 243.624 251.769 242.312 255.708 242.312C259.457 242.312 262.459 243.624 264.708 246.061C267.145 248.31 268.085 251.499 268.085 255.251V255.248ZM262.272 255.439C262.312 253.341 261.795 251.27 260.772 249.437C259.647 247.373 257.96 246.438 255.708 246.438C253.456 246.438 251.769 247.375 250.457 249.437C249.519 251.122 248.957 253.186 248.957 255.626C248.917 257.724 249.434 259.795 250.457 261.627C251.769 263.692 253.456 264.626 255.708 264.626C257.96 264.626 259.647 263.502 260.772 261.437C261.709 259.937 262.272 257.873 262.272 255.46V255.439ZM286.651 247.75C286.089 247.56 285.526 247.56 284.749 247.56C282.685 247.56 281.185 248.31 280.06 249.81C279.123 251.122 278.561 252.809 278.561 254.874V268.375H272.937V250.934L272.747 242.871H277.623L277.814 247.748H278.004C278.535 246.136 279.51 244.706 280.815 243.621C282.128 242.684 283.44 242.309 284.945 242.309C285.507 242.309 285.882 242.309 286.444 242.499L286.651 247.75ZM311.97 254.311C311.97 255.248 311.97 256.213 311.78 256.935H294.714C294.714 259.372 295.651 261.437 297.151 262.749C298.768 263.977 300.746 264.636 302.777 264.624C305.214 264.624 307.653 264.249 309.715 263.499L310.653 267.438C308.216 268.563 305.401 268.938 302.027 268.938C298.088 268.938 294.901 267.813 292.649 265.373C290.4 263.124 289.272 259.935 289.272 255.995C289.272 252.056 290.397 248.87 292.462 246.433C294.711 243.621 297.713 242.303 301.462 242.303C305.211 242.303 308.026 243.616 309.9 246.433C311.212 248.334 311.965 251.122 311.965 254.311H311.97ZM306.719 252.812C306.719 251.127 306.344 249.622 305.594 248.497C304.657 246.998 303.157 246.061 301.093 246.061C299.191 246.061 297.716 246.81 296.591 248.31C295.654 249.622 295.092 250.934 294.907 252.812H306.719Z" fill="black"/>
<defs>
<clipPath id="clip0_264_116">
<rect width="92.0388" height="92.0388" fill="white"/>
</clipPath>
</defs>
</svg>
