<svg width="132" height="14" viewBox="0 0 132 14" fill="none" xmlns="http://www.w3.org/2000/svg">
<path d="M3.926 2.759C4.87933 2.759 5.60733 2.967 6.11 3.383C6.62133 3.79033 6.877 4.41867 6.877 5.268V10H5.525L5.148 9.038H5.096C4.89667 9.28933 4.68867 9.49733 4.472 9.662C4.264 9.82667 4.02133 9.94367 3.744 10.013C3.47533 10.091 3.14167 10.13 2.743 10.13C2.327 10.13 1.95 10.052 1.612 9.896C1.28267 9.73133 1.02267 9.48433 0.832 9.155C0.641333 8.817 0.546 8.39233 0.546 7.881C0.546 7.127 0.810333 6.57233 1.339 6.217C1.86767 5.853 2.66067 5.65367 3.718 5.619L4.953 5.58V5.268C4.953 4.89533 4.85333 4.62233 4.654 4.449C4.46333 4.27567 4.19467 4.189 3.848 4.189C3.50133 4.189 3.16333 4.241 2.834 4.345C2.50467 4.44033 2.17533 4.56167 1.846 4.709L1.209 3.396C1.59033 3.19667 2.01067 3.04067 2.47 2.928C2.938 2.81533 3.42333 2.759 3.926 2.759ZM4.199 6.737C3.575 6.75433 3.14167 6.867 2.899 7.075C2.65633 7.283 2.535 7.556 2.535 7.894C2.535 8.18867 2.62167 8.401 2.795 8.531C2.96833 8.65233 3.19367 8.713 3.471 8.713C3.887 8.713 4.238 8.59167 4.524 8.349C4.81 8.09767 4.953 7.74667 4.953 7.296V6.711L4.199 6.737ZM10.7967 10H8.8597V0.119999H10.7967V10ZM15.7326 2.759C16.686 2.759 17.414 2.967 17.9166 3.383C18.428 3.79033 18.6836 4.41867 18.6836 5.268V10H17.3316L16.9546 9.038H16.9026C16.7033 9.28933 16.4953 9.49733 16.2786 9.662C16.0706 9.82667 15.828 9.94367 15.5506 10.013C15.282 10.091 14.9483 10.13 14.5496 10.13C14.1336 10.13 13.7566 10.052 13.4186 9.896C13.0893 9.73133 12.8293 9.48433 12.6386 9.155C12.448 8.817 12.3526 8.39233 12.3526 7.881C12.3526 7.127 12.617 6.57233 13.1456 6.217C13.6743 5.853 14.4673 5.65367 15.5246 5.619L16.7596 5.58V5.268C16.7596 4.89533 16.66 4.62233 16.4606 4.449C16.27 4.27567 16.0013 4.189 15.6546 4.189C15.308 4.189 14.97 4.241 14.6406 4.345C14.3113 4.44033 13.982 4.56167 13.6526 4.709L13.0156 3.396C13.397 3.19667 13.8173 3.04067 14.2766 2.928C14.7446 2.81533 15.23 2.759 15.7326 2.759ZM16.0056 6.737C15.3816 6.75433 14.9483 6.867 14.7056 7.075C14.463 7.283 14.3416 7.556 14.3416 7.894C14.3416 8.18867 14.4283 8.401 14.6016 8.531C14.775 8.65233 15.0003 8.713 15.2776 8.713C15.6936 8.713 16.0446 8.59167 16.3306 8.349C16.6166 8.09767 16.7596 7.74667 16.7596 7.296V6.711L16.0056 6.737ZM24.6963 2.772C25.459 2.772 26.07 2.98 26.5293 3.396C26.9887 3.80333 27.2183 4.462 27.2183 5.372V10H25.2813V5.853C25.2813 5.34167 25.1903 4.96033 25.0083 4.709C24.8263 4.449 24.536 4.319 24.1373 4.319C23.548 4.319 23.145 4.52267 22.9283 4.93C22.7117 5.32867 22.6033 5.905 22.6033 6.659V10H20.6663V2.902H22.1483L22.4083 3.812H22.5123C22.6683 3.56933 22.859 3.37433 23.0843 3.227C23.3097 3.071 23.561 2.95833 23.8383 2.889C24.1157 2.811 24.4017 2.772 24.6963 2.772ZM31.4593 10.13C30.6706 10.13 30.025 9.82233 29.5223 9.207C29.0283 8.583 28.7813 7.66867 28.7813 6.464C28.7813 5.25067 29.0326 4.332 29.5353 3.708C30.038 3.084 30.6966 2.772 31.5113 2.772C31.8493 2.772 32.1483 2.81967 32.4083 2.915C32.6683 3.00167 32.8893 3.123 33.0713 3.279C33.262 3.435 33.4223 3.61267 33.5523 3.812H33.6173C33.5913 3.67333 33.561 3.474 33.5263 3.214C33.4916 2.94533 33.4743 2.67233 33.4743 2.395V0.119999H35.4113V10H33.9293L33.5523 9.077H33.4743C33.353 9.26767 33.197 9.44533 33.0063 9.61C32.8243 9.766 32.6076 9.89167 32.3563 9.987C32.105 10.0823 31.806 10.13 31.4593 10.13ZM32.1353 8.583C32.6726 8.583 33.0496 8.427 33.2663 8.115C33.483 7.79433 33.5956 7.31767 33.6043 6.685V6.477C33.6043 5.78367 33.496 5.255 33.2793 4.891C33.0713 4.527 32.6813 4.345 32.1093 4.345C31.6846 4.345 31.351 4.53133 31.1083 4.904C30.8656 5.268 30.7443 5.79667 30.7443 6.49C30.7443 7.18333 30.8656 7.70767 31.1083 8.063C31.351 8.40967 31.6933 8.583 32.1353 8.583ZM39.3739 2.421C39.3739 2.68967 39.3652 2.954 39.3479 3.214C39.3305 3.474 39.3132 3.67767 39.2959 3.825H39.3739C39.5645 3.53033 39.8202 3.28333 40.1409 3.084C40.4615 2.876 40.8775 2.772 41.3889 2.772C42.1862 2.772 42.8319 3.084 43.3259 3.708C43.8199 4.32333 44.0669 5.23333 44.0669 6.438C44.0669 7.244 43.9499 7.92433 43.7159 8.479C43.4905 9.025 43.1742 9.43667 42.7669 9.714C42.3595 9.99133 41.8829 10.13 41.3369 10.13C40.8169 10.13 40.4052 10.039 40.1019 9.857C39.8072 9.66633 39.5645 9.454 39.3739 9.22H39.2439L38.9189 10H37.4369V0.119999H39.3739V2.421ZM40.7649 4.319C40.4269 4.319 40.1582 4.38833 39.9589 4.527C39.7595 4.66567 39.6122 4.878 39.5169 5.164C39.4302 5.44133 39.3825 5.79233 39.3739 6.217V6.425C39.3739 7.10967 39.4735 7.63833 39.6729 8.011C39.8809 8.375 40.2535 8.557 40.7909 8.557C41.1895 8.557 41.5059 8.375 41.7399 8.011C41.9739 7.63833 42.0909 7.10533 42.0909 6.412C42.0909 5.71867 41.9695 5.19867 41.7269 4.852C41.4929 4.49667 41.1722 4.319 40.7649 4.319ZM47.6004 2.135C47.6004 2.48167 47.5874 2.81533 47.5614 3.136C47.5441 3.45667 47.5267 3.682 47.5094 3.812H47.6134C47.7694 3.56933 47.9514 3.37433 48.1594 3.227C48.3674 3.071 48.5971 2.95833 48.8484 2.889C49.1084 2.811 49.3814 2.772 49.6674 2.772C50.1787 2.772 50.6251 2.863 51.0064 3.045C51.3877 3.227 51.6824 3.50867 51.8904 3.89C52.1071 4.27133 52.2154 4.76533 52.2154 5.372V10H50.2784V5.853C50.2784 5.34167 50.1831 4.96033 49.9924 4.709C49.8104 4.449 49.5244 4.319 49.1344 4.319C48.7444 4.319 48.4367 4.41 48.2114 4.592C47.9947 4.774 47.8387 5.03833 47.7434 5.385C47.6481 5.73167 47.6004 6.15633 47.6004 6.659V10H45.6634V0.119999H47.6004V2.135ZM64.2044 5.346C64.2044 5.74467 64.1567 6.139 64.0614 6.529C63.966 6.919 63.8187 7.27433 63.6194 7.595C63.4287 7.91567 63.186 8.17133 62.8914 8.362C62.5967 8.544 62.25 8.635 61.8514 8.635C61.5307 8.635 61.249 8.56133 61.0064 8.414C60.7637 8.258 60.5947 8.05867 60.4994 7.816H60.3954C60.222 8.03267 59.988 8.22333 59.6934 8.388C59.4074 8.55267 59.0607 8.635 58.6534 8.635C57.882 8.635 57.284 8.40533 56.8594 7.946C56.4434 7.478 56.2354 6.867 56.2354 6.113C56.2354 5.53233 56.361 5.021 56.6124 4.579C56.8637 4.12833 57.219 3.77733 57.6784 3.526C58.1377 3.266 58.6794 3.136 59.3034 3.136C59.7107 3.136 60.131 3.175 60.5644 3.253C61.0064 3.32233 61.3487 3.40033 61.5914 3.487L61.4614 6.152C61.4527 6.23867 61.4484 6.32967 61.4484 6.425C61.4484 6.51167 61.4484 6.568 61.4484 6.594C61.4484 6.94933 61.496 7.18767 61.5914 7.309C61.6954 7.42167 61.808 7.478 61.9294 7.478C62.1287 7.478 62.2934 7.38267 62.4234 7.192C62.5534 6.99267 62.6487 6.73267 62.7094 6.412C62.7787 6.08267 62.8134 5.723 62.8134 5.333C62.8134 4.605 62.666 3.98967 62.3714 3.487C62.0767 2.97567 61.6737 2.58567 61.1624 2.317C60.6597 2.04833 60.0834 1.914 59.4334 1.914C58.7487 1.914 58.1464 2.02233 57.6264 2.239C57.1064 2.45567 56.6687 2.759 56.3134 3.149C55.958 3.539 55.6894 3.99833 55.5074 4.527C55.334 5.05567 55.2474 5.632 55.2474 6.256C55.2474 7.036 55.386 7.699 55.6634 8.245C55.9494 8.78233 56.361 9.18967 56.8984 9.467C57.4444 9.74433 58.1117 9.883 58.9004 9.883C59.403 9.883 59.9274 9.82667 60.4734 9.714C61.0194 9.60133 61.5177 9.46267 61.9684 9.298V10.52C61.5524 10.6933 61.0887 10.832 60.5774 10.936C60.066 11.04 59.5244 11.092 58.9524 11.092C57.8777 11.092 56.959 10.9013 56.1964 10.52C55.4337 10.1387 54.8487 9.59267 54.4414 8.882C54.0427 8.16267 53.8434 7.30033 53.8434 6.295C53.8434 5.50633 53.9734 4.774 54.2334 4.098C54.4934 3.422 54.866 2.83267 55.3514 2.33C55.8454 1.81867 56.4347 1.42433 57.1194 1.147C57.804 0.860999 58.571 0.717999 59.4204 0.717999C60.1137 0.717999 60.7507 0.826333 61.3314 1.043C61.9207 1.251 62.4277 1.55867 62.8524 1.966C63.2857 2.36467 63.6194 2.85 63.8534 3.422C64.0874 3.98533 64.2044 4.62667 64.2044 5.346ZM57.7044 6.139C57.7044 6.61567 57.804 6.958 58.0034 7.166C58.2027 7.374 58.467 7.478 58.7964 7.478C59.2297 7.478 59.533 7.322 59.7064 7.01C59.8884 6.68933 59.9967 6.27333 60.0314 5.762L60.1094 4.358C60.014 4.34067 59.9057 4.32767 59.7844 4.319C59.663 4.30167 59.5287 4.293 59.3814 4.293C58.974 4.293 58.6447 4.384 58.3934 4.566C58.1507 4.73933 57.973 4.969 57.8604 5.255C57.7564 5.53233 57.7044 5.827 57.7044 6.139ZM68.1754 2.772C68.6087 2.772 68.9987 2.85867 69.3454 3.032C69.692 3.20533 69.9867 3.46533 70.2294 3.812H70.2814L70.4374 2.902H72.0754V10.013C72.0754 10.689 71.941 11.2567 71.6724 11.716C71.4124 12.1753 71.018 12.522 70.4894 12.756C69.9607 12.9987 69.3064 13.12 68.5264 13.12C68.0237 13.12 67.5557 13.0897 67.1224 13.029C66.6977 12.9683 66.2817 12.86 65.8744 12.704V11.157C66.169 11.2783 66.4637 11.378 66.7584 11.456C67.0617 11.5427 67.3694 11.6033 67.6814 11.638C68.002 11.6813 68.3227 11.703 68.6434 11.703C69.146 11.703 69.5187 11.5687 69.7614 11.3C70.0127 11.0313 70.1384 10.6283 70.1384 10.091V9.948C70.1384 9.80067 70.1427 9.649 70.1514 9.493C70.1687 9.337 70.1817 9.19833 70.1904 9.077H70.1384C69.8957 9.44967 69.6054 9.71833 69.2674 9.883C68.9294 10.0477 68.548 10.13 68.1234 10.13C67.2827 10.13 66.624 9.80933 66.1474 9.168C65.6794 8.518 65.4454 7.61667 65.4454 6.464C65.4454 5.684 65.5537 5.021 65.7704 4.475C65.987 3.92033 66.299 3.5 66.7064 3.214C67.1224 2.91933 67.612 2.772 68.1754 2.772ZM68.7864 4.345C68.483 4.345 68.2274 4.42733 68.0194 4.592C67.82 4.748 67.6684 4.98633 67.5644 5.307C67.469 5.619 67.4214 6.01333 67.4214 6.49C67.4214 7.20067 67.534 7.73367 67.7594 8.089C67.9847 8.43567 68.3357 8.609 68.8124 8.609C69.0637 8.609 69.2804 8.57867 69.4624 8.518C69.6444 8.44867 69.7917 8.34033 69.9044 8.193C70.0257 8.037 70.1167 7.83767 70.1774 7.595C70.238 7.35233 70.2684 7.05767 70.2684 6.711V6.477C70.2684 5.96567 70.2164 5.554 70.1124 5.242C70.0084 4.93 69.848 4.70467 69.6314 4.566C69.4147 4.41867 69.133 4.345 68.7864 4.345ZM82.4339 2.772C83.2399 2.772 83.8466 2.98 84.2539 3.396C84.6699 3.80333 84.8779 4.462 84.8779 5.372V10H82.9409V5.853C82.9409 5.34167 82.8542 4.96033 82.6809 4.709C82.5076 4.449 82.2389 4.319 81.8749 4.319C81.3636 4.319 80.9996 4.501 80.7829 4.865C80.5662 5.229 80.4579 5.75333 80.4579 6.438V10H78.5209V5.853C78.5209 5.515 78.4819 5.23333 78.4039 5.008C78.3259 4.78267 78.2089 4.61367 78.0529 4.501C77.8969 4.37967 77.6976 4.319 77.4549 4.319C77.0996 4.319 76.8179 4.41 76.6099 4.592C76.4019 4.774 76.2546 5.03833 76.1679 5.385C76.0812 5.73167 76.0379 6.15633 76.0379 6.659V10H74.1009V2.902H75.5829L75.8429 3.812H75.9469C76.0942 3.56933 76.2762 3.37433 76.4929 3.227C76.7096 3.071 76.9479 2.95833 77.2079 2.889C77.4766 2.811 77.7452 2.772 78.0139 2.772C78.5339 2.772 78.9759 2.85867 79.3399 3.032C79.7039 3.19667 79.9812 3.45667 80.1719 3.812H80.3409C80.5576 3.448 80.8566 3.18367 81.2379 3.019C81.6279 2.85433 82.0266 2.772 82.4339 2.772ZM89.7844 2.759C90.7377 2.759 91.4657 2.967 91.9684 3.383C92.4797 3.79033 92.7354 4.41867 92.7354 5.268V10H91.3834L91.0064 9.038H90.9544C90.7551 9.28933 90.5471 9.49733 90.3304 9.662C90.1224 9.82667 89.8797 9.94367 89.6024 10.013C89.3337 10.091 89.0001 10.13 88.6014 10.13C88.1854 10.13 87.8084 10.052 87.4704 9.896C87.1411 9.73133 86.8811 9.48433 86.6904 9.155C86.4997 8.817 86.4044 8.39233 86.4044 7.881C86.4044 7.127 86.6687 6.57233 87.1974 6.217C87.7261 5.853 88.5191 5.65367 89.5764 5.619L90.8114 5.58V5.268C90.8114 4.89533 90.7117 4.62233 90.5124 4.449C90.3217 4.27567 90.0531 4.189 89.7064 4.189C89.3597 4.189 89.0217 4.241 88.6924 4.345C88.3631 4.44033 88.0337 4.56167 87.7044 4.709L87.0674 3.396C87.4487 3.19667 87.8691 3.04067 88.3284 2.928C88.7964 2.81533 89.2817 2.759 89.7844 2.759ZM90.0574 6.737C89.4334 6.75433 89.0001 6.867 88.7574 7.075C88.5147 7.283 88.3934 7.556 88.3934 7.894C88.3934 8.18867 88.4801 8.401 88.6534 8.531C88.8267 8.65233 89.0521 8.713 89.3294 8.713C89.7454 8.713 90.0964 8.59167 90.3824 8.349C90.6684 8.09767 90.8114 7.74667 90.8114 7.296V6.711L90.0574 6.737ZM96.6551 2.902V10H94.7181V2.902H96.6551ZM95.6931 0.119999C95.9791 0.119999 96.2261 0.189333 96.4341 0.328C96.6421 0.458 96.7461 0.705 96.7461 1.069C96.7461 1.42433 96.6421 1.67133 96.4341 1.81C96.2261 1.94867 95.9791 2.018 95.6931 2.018C95.3984 2.018 95.1471 1.94867 94.9391 1.81C94.7398 1.67133 94.6401 1.42433 94.6401 1.069C94.6401 0.705 94.7398 0.458 94.9391 0.328C95.1471 0.189333 95.3984 0.119999 95.6931 0.119999ZM100.616 10H98.679V0.119999H100.616V10ZM102.367 9.09C102.367 8.69133 102.475 8.414 102.692 8.258C102.909 8.09333 103.173 8.011 103.485 8.011C103.788 8.011 104.048 8.09333 104.265 8.258C104.482 8.414 104.59 8.69133 104.59 9.09C104.59 9.47133 104.482 9.74867 104.265 9.922C104.048 10.0867 103.788 10.169 103.485 10.169C103.173 10.169 102.909 10.0867 102.692 9.922C102.475 9.74867 102.367 9.47133 102.367 9.09ZM109.233 10.13C108.531 10.13 107.933 10.0043 107.439 9.753C106.945 9.493 106.568 9.09433 106.308 8.557C106.048 8.01967 105.918 7.33067 105.918 6.49C105.918 5.62333 106.065 4.917 106.36 4.371C106.655 3.825 107.062 3.422 107.582 3.162C108.111 2.902 108.717 2.772 109.402 2.772C109.887 2.772 110.308 2.81967 110.663 2.915C111.027 3.01033 111.343 3.123 111.612 3.253L111.04 4.748C110.737 4.62667 110.451 4.527 110.182 4.449C109.922 4.371 109.662 4.332 109.402 4.332C109.064 4.332 108.782 4.41433 108.557 4.579C108.332 4.735 108.163 4.97333 108.05 5.294C107.946 5.606 107.894 6.00033 107.894 6.477C107.894 6.945 107.95 7.335 108.063 7.647C108.184 7.95033 108.358 8.18 108.583 8.336C108.808 8.48333 109.081 8.557 109.402 8.557C109.809 8.557 110.169 8.505 110.481 8.401C110.793 8.28833 111.096 8.13667 111.391 7.946V9.597C111.096 9.78767 110.784 9.922 110.455 10C110.134 10.0867 109.727 10.13 109.233 10.13ZM119.473 6.438C119.473 7.02733 119.39 7.55167 119.226 8.011C119.07 8.47033 118.84 8.86033 118.537 9.181C118.242 9.493 117.882 9.73133 117.458 9.896C117.033 10.052 116.552 10.13 116.015 10.13C115.521 10.13 115.061 10.052 114.637 9.896C114.221 9.73133 113.861 9.493 113.558 9.181C113.254 8.86033 113.016 8.47033 112.843 8.011C112.678 7.55167 112.596 7.02733 112.596 6.438C112.596 5.64933 112.734 4.98633 113.012 4.449C113.289 3.903 113.688 3.487 114.208 3.201C114.728 2.915 115.343 2.772 116.054 2.772C116.721 2.772 117.31 2.915 117.822 3.201C118.333 3.487 118.736 3.903 119.031 4.449C119.325 4.98633 119.473 5.64933 119.473 6.438ZM114.572 6.438C114.572 6.906 114.619 7.30033 114.715 7.621C114.819 7.933 114.979 8.17133 115.196 8.336C115.412 8.492 115.694 8.57 116.041 8.57C116.387 8.57 116.665 8.492 116.873 8.336C117.089 8.17133 117.245 7.933 117.341 7.621C117.445 7.30033 117.497 6.906 117.497 6.438C117.497 5.97 117.445 5.58 117.341 5.268C117.245 4.956 117.089 4.722 116.873 4.566C116.656 4.41 116.374 4.332 116.028 4.332C115.516 4.332 115.144 4.50967 114.91 4.865C114.684 5.21167 114.572 5.736 114.572 6.438ZM129.407 2.772C130.213 2.772 130.819 2.98 131.227 3.396C131.643 3.80333 131.851 4.462 131.851 5.372V10H129.914V5.853C129.914 5.34167 129.827 4.96033 129.654 4.709C129.48 4.449 129.212 4.319 128.848 4.319C128.336 4.319 127.972 4.501 127.756 4.865C127.539 5.229 127.431 5.75333 127.431 6.438V10H125.494V5.853C125.494 5.515 125.455 5.23333 125.377 5.008C125.299 4.78267 125.182 4.61367 125.026 4.501C124.87 4.37967 124.67 4.319 124.428 4.319C124.072 4.319 123.791 4.41 123.583 4.592C123.375 4.774 123.227 5.03833 123.141 5.385C123.054 5.73167 123.011 6.15633 123.011 6.659V10H121.074V2.902H122.556L122.816 3.812H122.92C123.067 3.56933 123.249 3.37433 123.466 3.227C123.682 3.071 123.921 2.95833 124.181 2.889C124.449 2.811 124.718 2.772 124.987 2.772C125.507 2.772 125.949 2.85867 126.313 3.032C126.677 3.19667 126.954 3.45667 127.145 3.812H127.314C127.53 3.448 127.829 3.18367 128.211 3.019C128.601 2.85433 128.999 2.772 129.407 2.772Z" fill="white" fill-opacity="0.8"/>
</svg>
