<svg width="36" height="36" viewBox="0 0 36 36" fill="none" xmlns="http://www.w3.org/2000/svg">
<path fill-rule="evenodd" clip-rule="evenodd" d="M33.7501 18C33.7501 17.7016 33.6315 17.4155 33.4206 17.2045C33.2096 16.9935 32.9234 16.875 32.6251 16.875H6.09081L13.1716 9.7965C13.2762 9.6919 13.3591 9.56773 13.4157 9.43107C13.4723 9.2944 13.5015 9.14793 13.5015 9C13.5015 8.85208 13.4723 8.7056 13.4157 8.56894C13.3591 8.43228 13.2762 8.3081 13.1716 8.2035C13.067 8.0989 12.9428 8.01593 12.8061 7.95932C12.6695 7.90272 12.523 7.87358 12.3751 7.87358C12.2271 7.87358 12.0807 7.90272 11.944 7.95932C11.8073 8.01593 11.6832 8.0989 11.5786 8.2035L2.57856 17.2035C2.47379 17.308 2.39067 17.4322 2.33395 17.5688C2.27724 17.7055 2.24805 17.852 2.24805 18C2.24805 18.148 2.27724 18.2945 2.33395 18.4312C2.39067 18.5679 2.47379 18.692 2.57856 18.7965L11.5786 27.7965C11.6832 27.9011 11.8073 27.9841 11.944 28.0407C12.0807 28.0973 12.2271 28.1264 12.3751 28.1264C12.523 28.1264 12.6695 28.0973 12.8061 28.0407C12.9428 27.9841 13.067 27.9011 13.1716 27.7965C13.2762 27.6919 13.3591 27.5677 13.4157 27.4311C13.4723 27.2944 13.5015 27.1479 13.5015 27C13.5015 26.8521 13.4723 26.7056 13.4157 26.5689C13.3591 26.4323 13.2762 26.3081 13.1716 26.2035L6.09081 19.125H32.6251C32.9234 19.125 33.2096 19.0065 33.4206 18.7955C33.6315 18.5845 33.7501 18.2984 33.7501 18Z" fill="white"/>
</svg>
