<svg width="452" height="65" viewBox="0 0 452 65" fill="none" xmlns="http://www.w3.org/2000/svg">
<path d="M85.4803 33.9036C85.5758 34.3865 85.6236 34.9048 85.6236 35.4348C85.6236 36.012 85.5758 36.5303 85.4803 37.1074H76.9184V57.2259C76.2855 57.3201 75.569 57.4144 74.8406 57.4144C74.1122 57.4144 73.4435 57.3201 72.9061 57.2259V32.6197C72.9061 26.1766 76.8229 23.3261 81.8979 23.3261C83.3547 23.3261 84.7519 23.5616 85.4803 23.7501C85.5758 24.233 85.6236 24.7513 85.6236 25.2814C85.6236 25.8114 85.5758 26.3297 85.4803 26.8598C84.513 26.6242 83.498 26.5299 82.3397 26.5299C78.8648 26.5299 76.9303 28.3439 76.9303 32.443V33.9153H85.4803V33.9036Z" fill="#BB2A36"/>
<path d="M89.3492 46.9311V33.9036C89.8746 33.8093 90.6986 33.7151 91.427 33.7151C92.1554 33.7151 92.8241 33.8093 93.3615 33.9036V46.778C93.3615 51.9725 95.7258 54.3636 100.228 54.3636C102.162 54.3636 103.762 54.128 105.159 53.7982V33.9036C105.697 33.8093 106.461 33.7151 107.189 33.7151C107.918 33.7151 108.634 33.8093 109.172 33.9036V56.2247C106.365 56.9903 103.129 57.5557 99.9889 57.5557C93.1107 57.5557 89.3492 53.9867 89.3492 46.9311Z" fill="#BB2A36"/>
<path d="M114.772 57.2259V34.8577C117.578 34.092 120.814 33.5266 124.051 33.5266C130.917 33.5266 134.786 37.1546 134.786 44.2102V57.2259C134.248 57.3201 133.436 57.4144 132.708 57.4144C131.98 57.4144 131.311 57.3201 130.773 57.2259V44.3515C130.773 39.157 128.361 36.7187 123.812 36.7187C121.782 36.7187 120.134 36.9543 118.784 37.2959V57.2259C118.247 57.3201 117.435 57.4144 116.707 57.4144C115.978 57.4144 115.298 57.3201 114.772 57.2259Z" fill="#BB2A36"/>
<path d="M139.228 45.9299C139.228 38.2971 143.873 33.5384 150.883 33.5384C152.387 33.5384 153.832 33.6798 155.181 34.0096V26.53C155.181 25.7172 155.42 25.246 155.91 24.8102C156.829 24.0446 158.083 23.4321 159.194 22.9963V56.1776C157.068 56.8961 153.88 57.6028 150.632 57.6028C143.777 57.6028 139.228 53.5509 139.228 45.9299ZM155.181 53.7982V37.2017C154.119 36.919 152.722 36.7305 151.074 36.7305C146.381 36.7305 143.288 39.7813 143.288 45.9299C143.288 51.2658 145.999 54.4225 150.775 54.4225C152.089 54.4107 153.593 54.2223 155.181 53.7982Z" fill="#BB2A36"/>
<path d="M181.572 42.9734V56.4249C178.909 57.1906 175.959 57.6146 173.165 57.6146C167.708 57.6146 163.743 55.3295 163.743 50.1703C163.743 45.6943 167.421 43.0676 173.463 43.0676C175.35 43.0676 176.508 43.1618 177.81 43.3503V42.4433C177.81 38.4856 175.637 36.7187 171.768 36.7187C169.69 36.7187 167.756 36.9543 165.678 37.5315C165.582 37.0603 165.534 36.4832 165.534 35.906C165.534 35.3877 165.582 34.8577 165.678 34.4218C167.469 33.8447 169.833 33.5149 171.911 33.5149C177.762 33.5266 181.572 36.3418 181.572 42.9734ZM177.81 54.0338V46.1655C176.652 45.977 175.446 45.9299 173.75 45.9299C169.595 45.9299 167.469 47.1195 167.469 50.0761C167.469 52.9384 169.499 54.5167 173.272 54.5167C174.765 54.505 176.795 54.2694 177.81 54.0338Z" fill="#BB2A36"/>
<path d="M202.899 56.4603C201.49 57.0845 199.949 57.4144 198.253 57.5086C198.934 58.4156 199.364 59.4168 199.364 60.5593C199.364 63.4216 197.191 65 194.241 65C192.653 65 191.435 64.7173 190.325 64.2344C190.277 63.8574 190.229 63.4687 190.229 62.9505C190.229 62.4322 190.277 61.9493 190.325 61.6194C191.483 62.0906 192.498 62.338 193.752 62.338C195.352 62.338 196.355 61.431 196.355 60.0057C196.355 59.1459 196.068 58.3331 195.435 57.5321C189.393 56.9079 186.109 52.4319 186.109 45.5647C186.109 38.4149 190.122 33.5502 196.749 33.5502C199.066 33.5502 200.857 33.9742 202.505 34.6928C202.6 35.1757 202.648 35.694 202.648 36.224C202.648 36.6952 202.6 37.3195 202.505 37.8495C200.857 37.1781 199.269 36.8012 197.477 36.8012C192.45 36.8012 190.181 40.0404 190.181 45.5294C190.181 51.0184 192.402 54.3518 197.525 54.3518C199.555 54.3518 201.299 53.9278 202.887 53.3977C202.982 53.8689 203.03 54.3989 203.03 54.9172C203.042 55.4119 202.994 55.9891 202.899 56.4603Z" fill="#BB2A36"/>
<path d="M223.879 42.9734V56.4249C221.217 57.1906 218.267 57.6146 215.473 57.6146C210.016 57.6146 206.051 55.3295 206.051 50.1703C206.051 45.6943 209.729 43.0676 215.771 43.0676C217.658 43.0676 218.816 43.1618 220.118 43.3503V42.4433C220.118 38.4856 217.945 36.7187 214.076 36.7187C211.998 36.7187 210.063 36.9543 207.986 37.5315C207.89 37.0603 207.842 36.4832 207.842 35.906C207.842 35.3877 207.89 34.8577 207.986 34.4218C209.777 33.8447 212.141 33.5149 214.219 33.5149C220.058 33.5266 223.879 36.3418 223.879 42.9734ZM208.595 29.8516C208.499 29.5218 208.451 28.9918 208.451 28.5206C208.451 28.0494 208.499 27.6136 208.595 27.1896C209.61 26.3768 210.911 25.7643 212.368 25.7643C213.335 25.7643 214.207 26.0941 215.031 26.4828C215.903 26.8598 216.87 27.2485 218.076 27.2485C219.425 27.2485 220.739 26.7184 221.849 25.9174C221.897 26.2944 221.945 26.7773 221.945 27.2485C221.945 27.7196 221.897 28.2026 221.849 28.6266C220.787 29.4394 219.533 30.0047 218.076 30.0047C216.822 30.0047 215.807 29.5807 214.935 29.192C214.159 28.8622 213.288 28.5206 212.368 28.5206C211.019 28.5206 209.657 29.0506 208.595 29.8516ZM220.106 54.0338V46.1655C218.948 45.977 217.742 45.9299 216.046 45.9299C211.89 45.9299 209.765 47.1196 209.765 50.0761C209.765 52.9384 211.795 54.5167 215.568 54.5167C217.061 54.505 219.091 54.2694 220.106 54.0338Z" fill="#BB2A36"/>
<path d="M228.417 45.5883C228.417 37.9555 232.429 33.5266 238.854 33.5266C245.481 33.5266 249.291 37.9084 249.291 45.5883C249.291 53.0797 245.326 57.6028 238.806 57.6028C232.382 57.6028 228.417 53.1268 228.417 45.5883ZM245.242 45.5883C245.242 39.7224 243.069 36.7187 238.866 36.7187C234.758 36.7187 232.489 39.8166 232.489 45.5883C232.489 51.2657 234.662 54.4107 238.818 54.4107C243.021 54.4107 245.242 51.36 245.242 45.5883Z" fill="#BB2A36"/>
<path d="M317.105 52.3023C313.881 52.3023 312.125 51.3482 312.125 49.122C312.125 46.8957 313.881 46.0005 317.105 46.0005C318.18 46.0005 319.421 46.1066 320.102 46.1655V52.0196C319.708 52.1256 317.953 52.3023 317.105 52.3023ZM271 52.0785C270.259 52.0785 269.137 52.0785 268.337 51.7958V37.8966C269.292 37.3901 270.653 37.1192 272.409 37.1192C275.919 37.1192 277.782 39.5221 277.782 44.0335C277.782 48.7804 275.585 52.0785 271 52.0785ZM347.257 51.678C346.074 52.0078 345.215 52.0667 344.259 52.0667C339.614 52.0667 337.811 49.0513 337.811 44.7049C337.811 39.8519 339.614 36.8954 344.2 36.8954C345.561 36.8954 346.409 37.0603 347.257 37.2841V51.678ZM438.906 52.1256C435.001 52.1256 433.819 49.0042 433.819 44.54C433.819 40.1817 435.001 36.8365 438.906 36.8365C442.918 36.8365 444.052 40.0757 444.052 44.54C444.052 49.228 442.751 52.1256 438.906 52.1256ZM365.133 41.4657C365.646 38.3913 367.509 36.5538 370.339 36.5538C373.503 36.5538 374.745 38.674 374.865 41.4657H365.133ZM302.907 31.5949C299.575 31.5949 297.641 32.8788 295.837 35.1639C295.67 33.9978 295.443 33.0437 295.049 31.8658C294.369 31.642 293.186 31.5831 292.16 31.5831C291.192 31.5831 289.95 31.7009 289.329 31.8658V57.1434C290.177 57.3672 291.586 57.4261 292.84 57.4261C294.034 57.4261 295.611 57.3201 296.351 57.1434V44.8227C296.351 39.9108 298.954 37.2841 302.465 37.2841C303.086 37.2841 304.16 37.2841 304.781 37.3901C305.176 35.7764 305.235 33.4324 304.889 31.8069C304.483 31.7009 303.468 31.5949 302.907 31.5949ZM438.906 31.2533C431.048 31.2533 426.63 36.5538 426.63 44.54C426.63 52.6321 431.275 57.7088 438.906 57.7088C446.823 57.7088 451.241 52.5143 451.241 44.54C451.229 36.5067 446.823 31.2533 438.906 31.2533ZM419.274 52.0196C415.763 52.0196 413.447 49.2869 413.447 44.4811C413.447 39.9108 415.31 36.9425 419.334 36.9425C421.03 36.9425 422.224 37.2252 423.8 37.8377C424.254 36.2711 425.102 34.4925 426.284 32.9848C424.075 31.8658 421.925 31.2533 418.426 31.2533C410.676 31.2533 406.21 36.6716 406.21 44.4811C406.21 52.5732 410.796 57.7088 418.713 57.7088C421.603 57.7088 424.254 57.2023 426.403 56.0362C425.436 54.8112 424.361 53.1386 423.74 51.1833C421.758 51.9607 420.91 52.0196 419.274 52.0196ZM397.434 42.1371L394.604 40.9592C392.968 40.2878 392 39.7341 392 38.674C392 37.0603 393.469 36.7187 395.392 36.7187C397.314 36.7187 399.296 36.9425 402.007 37.7788C402.341 35.9413 402.341 34.2098 402.007 32.5843C400.311 31.6891 397.147 31.2415 394.377 31.2415C388.943 31.2415 384.812 34.1391 384.812 38.4974C384.812 42.408 386.507 44.3515 391.26 46.2597L393.469 47.1549C395.559 47.9912 396.18 48.4977 396.18 49.8287C396.18 51.8429 394.15 52.1727 392.442 52.1727C389.612 52.1727 387.463 51.6191 384.752 50.665C384.298 52.2787 384.298 54.3989 384.752 56.0715C387.069 57.2966 390.233 57.6853 393.577 57.6853C398.95 57.6853 403.249 54.8937 403.249 49.8758C403.261 45.765 401.446 43.8097 397.434 42.1371ZM370.446 31.2533C362.864 31.2533 358.231 36.2711 358.231 44.646C358.231 53.0208 363.15 57.7088 371.581 57.7088C374.471 57.7088 377.575 57.2023 379.558 56.26C379.952 54.6463 379.952 52.5261 379.558 50.9006C376.954 51.6309 374.745 52.0667 372.321 52.0667C368.416 52.0667 365.706 50.6179 365.133 46.5424H381.086C381.313 45.9299 381.373 43.8686 381.373 43.0205C381.373 35.5055 377.074 31.2533 370.446 31.2533ZM315.863 31.2533C313.093 31.1944 310.657 31.536 308.28 32.0896C307.826 33.6562 307.886 35.9413 308.28 37.555C311.218 36.8836 312.866 36.8247 314.729 36.8247C318.347 36.8247 320.102 38.2736 320.102 41.2301V41.5128C319.027 41.395 317.726 41.289 316.818 41.289C310.824 41.289 305.677 43.4092 305.677 49.0984C305.677 55.5179 310.322 57.697 317.045 57.697C320.21 57.697 323.661 57.1434 326.837 56.1893V41.7483C326.837 34.8341 323.04 31.43 315.863 31.2533ZM347.257 25.6819V31.7598C346.015 31.43 344.713 31.3711 343.579 31.3711C335.829 31.3711 330.563 36.5067 330.563 44.7049C330.563 53.0797 335.709 57.7088 343.746 57.7088C347.424 57.7088 351.042 57.2023 354.266 56.1422V20.0397C352.284 20.77 350.194 21.7712 348.439 23.1612C347.543 23.8915 347.257 24.6218 347.257 25.6819ZM273.603 31.3711C271.561 31.3711 269.591 31.8187 268.337 32.4312V20.0397C266.354 20.77 264.265 21.7712 262.509 23.1612C261.602 23.8915 261.327 24.61 261.327 25.6701V56.2482C263.19 57.0256 266.987 57.697 270.606 57.697C279.776 57.697 285.031 52.1727 285.031 44.1984C285.031 36.2829 281.293 31.3711 273.603 31.3711Z" fill="#BB2A36"/>
<path d="M28.9503 12.289C25.3918 12.289 21.5109 12.607 17.6778 13.2549C21.5587 8.33126 27.7204 5.16272 34.5866 5.16272C39.6616 5.16272 44.7247 7.04735 48.1399 9.85074C48.7608 10.3572 49.2266 10.4044 49.7042 9.94497C50.1819 9.48559 50.1341 9.02622 49.6087 8.42549C45.1546 3.31342 38.6108 -0.126029 30.8848 0.00353928C20.7944 0.192002 12.2206 6.49374 8.9487 15.2337C5.96338 16.1525 3.21689 17.2597 0.80476 18.5907C0.13605 18.9559 -0.0908337 19.4153 0.13605 19.9689C0.374875 20.4754 0.852526 20.6638 1.50929 20.4754C3.59901 19.8746 5.72456 19.3681 7.95757 18.9088C7.71875 20.0631 7.57545 21.2528 7.57545 22.5013C7.38439 30.5464 11.743 38.1791 18.4778 42.3606C19.1465 42.7729 19.7078 42.7729 20.0899 42.2664C20.472 41.7599 20.4242 41.3005 19.8511 40.7941C15.588 37.0248 13.2237 31.418 13.2237 25.8466C13.2237 23.0432 13.7968 20.334 14.8835 17.8958C17.1165 17.7073 19.5287 17.5777 22.1796 17.5777C39.4228 17.5777 53.9672 23.1845 53.9672 30.5464C53.9672 34.2685 49.1788 37.9907 43.4948 40.476C42.1215 41.0767 41.9782 41.489 42.1693 42.0897C42.3603 42.6433 42.9693 42.82 43.6858 42.5962C53.6329 39.3806 61.1678 34.0918 61.1678 27.6959C61.1678 19.003 46.9577 12.289 28.9503 12.289Z" fill="#BB2A36"/>
<path d="M35.9121 37.2252L30.8013 40.1229V57.4026H36.2584C36.76 57.4026 37.1779 57.0021 37.1779 56.4956V37.8731C37.1779 37.1546 36.4853 36.8954 35.9121 37.2252Z" fill="#BB2A36"/>
<path d="M29.3683 40.9356L25.8696 42.9262C25.4994 43.1383 25.2725 43.4563 25.2725 43.9392V56.8136C25.2725 57.1317 25.5352 57.3908 25.8576 57.3908H29.3564V40.9356H29.3683Z" fill="#BB2A36"/>
</svg>
