<svg width="400" height="422" viewBox="0 0 400 422" fill="none" xmlns="http://www.w3.org/2000/svg">
<g clip-path="url(#clip0_283_595)">
<path d="M229.119 0H103.34C97.4562 0.0168338 91.8186 2.36145 87.6584 6.52165C83.4982 10.6819 81.1536 16.3195 81.1367 22.2028V303.403C81.1535 309.283 83.4957 314.918 87.6519 319.077C91.8082 323.237 97.4411 325.584 103.321 325.605H295.728C301.61 325.586 307.245 323.24 311.403 319.08C315.561 314.921 317.905 309.284 317.922 303.403V88.8023L266.124 51.7975L229.119 0Z" fill="#0F9D58"/>
<path d="M140.316 159.102V266.361H258.677V159.102H140.316ZM192.141 251.605H155.137V233.103H192.141V251.605ZM192.141 222.001H155.137V203.472H192.141V222.001ZM192.141 192.397H155.137V173.895H192.141V192.397ZM243.939 251.641H206.934V233.139H243.939V251.641ZM243.939 222.038H206.934V203.472H243.939V222.038ZM243.939 192.434H206.934V173.932H243.939V192.434Z" fill="#F1F1F1"/>
<path d="M235.619 82.3037L317.923 164.598V88.8023L235.619 82.3037Z" fill="url(#paint0_linear_283_595)"/>
<path d="M229.119 0V66.5994C229.118 69.5155 229.691 72.4032 230.807 75.0975C231.922 77.7918 233.558 80.2399 235.62 82.3019C237.681 84.3638 240.13 85.9993 242.824 87.1146C245.518 88.23 248.406 88.8035 251.322 88.8023H317.921L229.119 0Z" fill="#87CEAC"/>
<path d="M103.322 0C97.4386 0.0168338 91.801 2.36145 87.6408 6.52165C83.4806 10.6819 81.136 16.3195 81.1191 22.2028V24.0257C81.136 18.1423 83.4806 12.5047 87.6408 8.34455C91.801 4.18435 97.4386 1.83973 103.322 1.82289H229.102V0H103.322Z" fill="white" fill-opacity="0.2"/>
<path d="M295.719 323.782H103.322C97.4386 323.765 91.801 321.421 87.6408 317.261C83.4806 313.1 81.136 307.463 81.1191 301.579V303.402C81.136 309.286 83.4806 314.923 87.6408 319.083C91.801 323.244 97.4386 325.588 103.322 325.605H295.728C301.61 325.586 307.246 323.24 311.404 319.08C315.562 314.92 317.905 309.284 317.922 303.402V301.579C317.905 307.463 315.561 313.1 311.401 317.261C307.24 321.421 301.603 323.765 295.719 323.782Z" fill="#263238" fill-opacity="0.2"/>
<path d="M251.322 88.8022C248.406 88.8034 245.518 88.2299 242.824 87.1146C240.13 85.9992 237.681 84.3638 235.62 82.3018C233.558 80.2399 231.922 77.7918 230.807 75.0975C229.691 72.4031 229.118 69.5154 229.119 66.5994V68.4223C229.118 71.3383 229.691 74.226 230.807 76.9203C231.922 79.6147 233.558 82.0628 235.62 84.1247C237.681 86.1867 240.13 87.8221 242.824 88.9375C245.518 90.0528 248.406 90.6263 251.322 90.6251H317.921V88.8022H251.322Z" fill="#263238" fill-opacity="0.1"/>
<path d="M229.119 0H103.34C97.4562 0.0168338 91.8186 2.36145 87.6584 6.52165C83.4982 10.6819 81.1536 16.3195 81.1367 22.2028V303.403C81.1535 309.283 83.4957 314.918 87.6519 319.077C91.8082 323.237 97.4411 325.584 103.321 325.605H295.728C301.61 325.586 307.245 323.24 311.403 319.08C315.561 314.921 317.905 309.284 317.922 303.403V88.8023L229.119 0Z" fill="url(#paint1_radial_283_595)"/>
</g>
<path d="M24.6088 383.522H45.5742C45.6936 383.999 45.7932 384.577 45.8728 385.254C45.9524 385.931 45.9923 386.608 45.9923 387.285C45.9923 390.032 45.5742 392.621 44.7379 395.05C43.9017 397.479 42.5876 399.649 40.7957 401.56C38.8844 403.591 36.5947 405.164 33.9268 406.279C31.2588 407.394 28.2126 407.951 24.788 407.951C21.6821 407.951 18.7553 407.394 16.0077 406.279C13.2601 405.164 10.8709 403.611 8.84007 401.62C6.80924 399.629 5.19653 397.279 4.00192 394.572C2.80732 391.824 2.21002 388.838 2.21002 385.612C2.21002 382.387 2.80732 379.42 4.00192 376.712C5.19653 373.965 6.80924 371.595 8.84007 369.604C10.8709 367.613 13.2601 366.06 16.0077 364.946C18.7553 363.831 21.6821 363.273 24.788 363.273C28.2524 363.273 31.3385 363.87 34.0462 365.065C36.7938 366.26 39.1432 367.912 41.0944 370.023L35.5395 375.458C34.1458 373.985 32.5928 372.87 30.8805 372.113C29.1683 371.317 27.1175 370.919 24.7283 370.919C22.7771 370.919 20.9255 371.277 19.1734 371.994C17.4213 372.671 15.8882 373.646 14.5742 374.92C13.2601 376.195 12.2049 377.748 11.4085 379.579C10.6519 381.371 10.2736 383.382 10.2736 385.612C10.2736 387.842 10.6519 389.873 11.4085 391.705C12.2049 393.497 13.2601 395.03 14.5742 396.304C15.9281 397.578 17.481 398.574 19.2331 399.29C20.9852 399.967 22.8568 400.306 24.8478 400.306C27.1175 400.306 29.0289 399.987 30.5819 399.35C32.1747 398.673 33.5286 397.817 34.6435 396.782C35.4399 396.065 36.1169 395.169 36.6743 394.094C37.2717 392.979 37.7296 391.744 38.0481 390.391H24.6088V383.522ZM65.2665 376.772C67.5362 376.772 69.6068 377.17 71.4784 377.967C73.3898 378.723 75.0224 379.798 76.3763 381.192C77.77 382.546 78.8451 384.179 79.6017 386.09C80.3981 388.001 80.7963 390.092 80.7963 392.362C80.7963 394.631 80.3981 396.722 79.6017 398.633C78.8451 400.545 77.77 402.197 76.3763 403.591C75.0224 404.945 73.3898 406.02 71.4784 406.816C69.6068 407.573 67.5362 407.951 65.2665 407.951C62.9967 407.951 60.9061 407.573 58.9948 406.816C57.1232 406.02 55.4906 404.945 54.0969 403.591C52.743 402.197 51.6679 400.545 50.8715 398.633C50.1149 396.722 49.7366 394.631 49.7366 392.362C49.7366 390.092 50.1149 388.001 50.8715 386.09C51.6679 384.179 52.743 382.546 54.0969 381.192C55.4906 379.798 57.1232 378.723 58.9948 377.967C60.9061 377.17 62.9967 376.772 65.2665 376.772ZM65.2665 400.724C66.262 400.724 67.2176 400.545 68.1335 400.186C69.0892 399.788 69.9254 399.231 70.6422 398.514C71.3589 397.797 71.9164 396.921 72.3146 395.886C72.7526 394.85 72.9717 393.676 72.9717 392.362C72.9717 391.048 72.7526 389.873 72.3146 388.838C71.9164 387.802 71.3589 386.926 70.6422 386.209C69.9254 385.493 69.0892 384.955 68.1335 384.597C67.2176 384.199 66.262 383.999 65.2665 383.999C64.2311 383.999 63.2555 384.199 62.3397 384.597C61.4238 384.955 60.6075 385.493 59.8907 386.209C59.174 386.926 58.5966 387.802 58.1586 388.838C57.7604 389.873 57.5613 391.048 57.5613 392.362C57.5613 393.676 57.7604 394.85 58.1586 395.886C58.5966 396.921 59.174 397.797 59.8907 398.514C60.6075 399.231 61.4238 399.788 62.3397 400.186C63.2555 400.545 64.2311 400.724 65.2665 400.724ZM99.6813 376.772C101.951 376.772 104.022 377.17 105.893 377.967C107.805 378.723 109.437 379.798 110.791 381.192C112.185 382.546 113.26 384.179 114.017 386.09C114.813 388.001 115.211 390.092 115.211 392.362C115.211 394.631 114.813 396.722 114.017 398.633C113.26 400.545 112.185 402.197 110.791 403.591C109.437 404.945 107.805 406.02 105.893 406.816C104.022 407.573 101.951 407.951 99.6813 407.951C97.4116 407.951 95.321 407.573 93.4096 406.816C91.5381 406.02 89.9055 404.945 88.5118 403.591C87.1579 402.197 86.0827 400.545 85.2863 398.633C84.5298 396.722 84.1515 394.631 84.1515 392.362C84.1515 390.092 84.5298 388.001 85.2863 386.09C86.0827 384.179 87.1579 382.546 88.5118 381.192C89.9055 379.798 91.5381 378.723 93.4096 377.967C95.321 377.17 97.4116 376.772 99.6813 376.772ZM99.6813 400.724C100.677 400.724 101.633 400.545 102.548 400.186C103.504 399.788 104.34 399.231 105.057 398.514C105.774 397.797 106.331 396.921 106.729 395.886C107.168 394.85 107.387 393.676 107.387 392.362C107.387 391.048 107.168 389.873 106.729 388.838C106.331 387.802 105.774 386.926 105.057 386.209C104.34 385.493 103.504 384.955 102.548 384.597C101.633 384.199 100.677 383.999 99.6813 383.999C98.646 383.999 97.6704 384.199 96.7545 384.597C95.8387 384.955 95.0224 385.493 94.3056 386.209C93.5888 386.926 93.0114 387.802 92.5734 388.838C92.1752 389.873 91.9761 391.048 91.9761 392.362C91.9761 393.676 92.1752 394.85 92.5734 395.886C93.0114 396.921 93.5888 397.797 94.3056 398.514C95.0224 399.231 95.8387 399.788 96.7545 400.186C97.6704 400.545 98.646 400.724 99.6813 400.724ZM133.738 420.853C131.667 420.853 129.816 420.574 128.183 420.017C126.59 419.499 125.196 418.802 124.002 417.926C122.807 417.09 121.812 416.154 121.015 415.119C120.219 414.084 119.641 413.048 119.283 412.013L126.749 409.026C127.307 410.579 128.223 411.774 129.497 412.61C130.771 413.486 132.185 413.924 133.738 413.924C136.207 413.924 138.158 413.148 139.591 411.595C141.025 410.082 141.742 407.951 141.742 405.204V403.173H141.264C140.348 404.447 139.133 405.463 137.62 406.219C136.147 406.936 134.395 407.294 132.364 407.294C130.612 407.294 128.9 406.936 127.227 406.219C125.595 405.502 124.141 404.487 122.867 403.173C121.593 401.819 120.557 400.206 119.761 398.335C118.965 396.463 118.566 394.373 118.566 392.063C118.566 389.753 118.965 387.663 119.761 385.791C120.557 383.88 121.593 382.267 122.867 380.953C124.141 379.599 125.595 378.564 127.227 377.847C128.9 377.13 130.612 376.772 132.364 376.772C134.395 376.772 136.147 377.15 137.62 377.907C139.133 378.624 140.348 379.619 141.264 380.894H141.742V377.728H149.208V404.905C149.208 407.374 148.83 409.584 148.073 411.535C147.316 413.526 146.261 415.199 144.907 416.552C143.553 417.946 141.921 419.001 140.009 419.718C138.138 420.475 136.047 420.853 133.738 420.853ZM134.036 400.246C134.992 400.246 135.928 400.067 136.844 399.709C137.799 399.35 138.636 398.832 139.352 398.156C140.069 397.439 140.647 396.583 141.085 395.587C141.523 394.552 141.742 393.377 141.742 392.063C141.742 390.749 141.523 389.574 141.085 388.539C140.647 387.504 140.069 386.648 139.352 385.971C138.636 385.254 137.799 384.716 136.844 384.358C135.928 383.999 134.992 383.82 134.036 383.82C133.081 383.82 132.145 383.999 131.229 384.358C130.313 384.716 129.497 385.254 128.78 385.971C128.063 386.687 127.486 387.563 127.048 388.599C126.61 389.594 126.391 390.749 126.391 392.063C126.391 393.377 126.61 394.552 127.048 395.587C127.486 396.583 128.063 397.439 128.78 398.156C129.497 398.832 130.313 399.35 131.229 399.709C132.145 400.067 133.081 400.246 134.036 400.246ZM155.879 406.996V364.229H163.703V406.996H155.879ZM197.826 399.947C196.472 402.337 194.64 404.268 192.331 405.741C190.061 407.215 187.274 407.951 183.969 407.951C181.739 407.951 179.668 407.573 177.757 406.816C175.885 406.02 174.252 404.925 172.859 403.531C171.465 402.138 170.37 400.505 169.574 398.633C168.817 396.722 168.439 394.631 168.439 392.362C168.439 390.251 168.817 388.26 169.574 386.389C170.33 384.477 171.385 382.825 172.739 381.431C174.093 379.998 175.686 378.863 177.518 378.026C179.389 377.19 181.44 376.772 183.67 376.772C186.019 376.772 188.11 377.17 189.942 377.967C191.773 378.723 193.306 379.798 194.541 381.192C195.775 382.546 196.711 384.159 197.348 386.03C197.985 387.902 198.304 389.933 198.304 392.123C198.304 392.402 198.304 392.64 198.304 392.84C198.264 393.078 198.244 393.297 198.244 393.497C198.204 393.696 198.184 393.915 198.184 394.154H176.144C176.303 395.348 176.622 396.384 177.1 397.26C177.617 398.096 178.234 398.813 178.951 399.41C179.708 399.967 180.524 400.385 181.4 400.664C182.276 400.903 183.172 401.023 184.088 401.023C185.88 401.023 187.353 400.624 188.508 399.828C189.703 398.992 190.638 397.956 191.315 396.722L197.826 399.947ZM190.718 388.599C190.678 388.081 190.499 387.504 190.181 386.867C189.902 386.229 189.464 385.632 188.866 385.075C188.309 384.517 187.592 384.059 186.716 383.701C185.88 383.342 184.865 383.163 183.67 383.163C181.997 383.163 180.524 383.641 179.25 384.597C177.976 385.552 177.08 386.886 176.562 388.599H190.718ZM228.654 407.951C226.822 407.951 225.07 407.692 223.398 407.175C221.725 406.657 220.192 405.881 218.798 404.845C217.405 403.81 216.19 402.556 215.155 401.082C214.119 399.569 213.303 397.817 212.706 395.826L220.292 392.84C220.849 394.99 221.825 396.782 223.218 398.215C224.612 399.609 226.444 400.306 228.714 400.306C229.55 400.306 230.346 400.206 231.103 400.007C231.899 399.768 232.596 399.45 233.193 399.051C233.83 398.613 234.328 398.076 234.687 397.439C235.045 396.802 235.224 396.065 235.224 395.229C235.224 394.432 235.085 393.716 234.806 393.078C234.527 392.441 234.049 391.844 233.372 391.287C232.735 390.729 231.879 390.192 230.804 389.674C229.769 389.156 228.475 388.619 226.922 388.061L224.293 387.105C223.139 386.707 221.964 386.17 220.769 385.493C219.615 384.816 218.559 383.999 217.604 383.044C216.648 382.088 215.852 380.973 215.214 379.699C214.617 378.385 214.319 376.911 214.319 375.279C214.319 373.606 214.637 372.053 215.274 370.62C215.951 369.147 216.887 367.872 218.082 366.797C219.316 365.682 220.769 364.826 222.442 364.229C224.154 363.592 226.046 363.273 228.116 363.273C230.266 363.273 232.118 363.572 233.671 364.169C235.264 364.727 236.598 365.463 237.673 366.379C238.788 367.255 239.684 368.231 240.361 369.306C241.038 370.381 241.536 371.396 241.854 372.352L234.746 375.339C234.348 374.144 233.611 373.069 232.536 372.113C231.501 371.157 230.067 370.68 228.236 370.68C226.484 370.68 225.03 371.098 223.875 371.934C222.721 372.73 222.143 373.786 222.143 375.1C222.143 376.374 222.701 377.469 223.816 378.385C224.931 379.261 226.703 380.117 229.132 380.953L231.819 381.849C233.532 382.446 235.085 383.143 236.478 383.94C237.912 384.696 239.126 385.612 240.122 386.687C241.157 387.762 241.934 388.997 242.451 390.391C243.009 391.744 243.288 393.317 243.288 395.109C243.288 397.339 242.83 399.27 241.914 400.903C241.038 402.496 239.903 403.81 238.509 404.845C237.116 405.881 235.543 406.657 233.791 407.175C232.038 407.692 230.326 407.951 228.654 407.951ZM248.974 364.229H256.798V376.235L256.321 381.551H256.798C257.635 380.157 258.829 379.022 260.382 378.146C261.975 377.23 263.747 376.772 265.698 376.772C269.481 376.772 272.268 377.887 274.06 380.117C275.892 382.347 276.808 385.393 276.808 389.256V406.996H268.983V390.211C268.983 388.181 268.505 386.648 267.55 385.612C266.594 384.537 265.26 383.999 263.548 383.999C262.473 383.999 261.517 384.238 260.681 384.716C259.845 385.154 259.128 385.771 258.531 386.568C257.973 387.364 257.535 388.3 257.216 389.375C256.938 390.411 256.798 391.525 256.798 392.72V406.996H248.974V364.229ZM310.987 399.947C309.633 402.337 307.801 404.268 305.492 405.741C303.222 407.215 300.434 407.951 297.129 407.951C294.899 407.951 292.829 407.573 290.917 406.816C289.046 406.02 287.413 404.925 286.02 403.531C284.626 402.138 283.531 400.505 282.734 398.633C281.978 396.722 281.599 394.631 281.599 392.362C281.599 390.251 281.978 388.26 282.734 386.389C283.491 384.477 284.546 382.825 285.9 381.431C287.254 379.998 288.847 378.863 290.678 378.026C292.55 377.19 294.601 376.772 296.831 376.772C299.18 376.772 301.271 377.17 303.102 377.967C304.934 378.723 306.467 379.798 307.702 381.192C308.936 382.546 309.872 384.159 310.509 386.03C311.146 387.902 311.465 389.933 311.465 392.123C311.465 392.402 311.465 392.64 311.465 392.84C311.425 393.078 311.405 393.297 311.405 393.497C311.365 393.696 311.345 393.915 311.345 394.154H289.305C289.464 395.348 289.783 396.384 290.26 397.26C290.778 398.096 291.395 398.813 292.112 399.41C292.869 399.967 293.685 400.385 294.561 400.664C295.437 400.903 296.333 401.023 297.249 401.023C299.041 401.023 300.514 400.624 301.669 399.828C302.863 398.992 303.799 397.956 304.476 396.722L310.987 399.947ZM303.879 388.599C303.839 388.081 303.66 387.504 303.341 386.867C303.063 386.229 302.625 385.632 302.027 385.075C301.47 384.517 300.753 384.059 299.877 383.701C299.041 383.342 298.025 383.163 296.831 383.163C295.158 383.163 293.685 383.641 292.411 384.597C291.136 385.552 290.24 386.886 289.723 388.599H303.879ZM344.468 399.947C343.114 402.337 341.283 404.268 338.973 405.741C336.703 407.215 333.916 407.951 330.611 407.951C328.381 407.951 326.31 407.573 324.399 406.816C322.527 406.02 320.895 404.925 319.501 403.531C318.107 402.138 317.012 400.505 316.216 398.633C315.459 396.722 315.081 394.631 315.081 392.362C315.081 390.251 315.459 388.26 316.216 386.389C316.973 384.477 318.028 382.825 319.382 381.431C320.736 379.998 322.328 378.863 324.16 378.026C326.032 377.19 328.082 376.772 330.312 376.772C332.662 376.772 334.752 377.17 336.584 377.967C338.416 378.723 339.949 379.798 341.183 381.192C342.418 382.546 343.353 384.159 343.99 386.03C344.628 387.902 344.946 389.933 344.946 392.123C344.946 392.402 344.946 392.64 344.946 392.84C344.906 393.078 344.886 393.297 344.886 393.497C344.847 393.696 344.827 393.915 344.827 394.154H322.786C322.946 395.348 323.264 396.384 323.742 397.26C324.26 398.096 324.877 398.813 325.594 399.41C326.35 399.967 327.166 400.385 328.043 400.664C328.919 400.903 329.814 401.023 330.73 401.023C332.522 401.023 333.996 400.624 335.15 399.828C336.345 398.992 337.281 397.956 337.958 396.722L344.468 399.947ZM337.36 388.599C337.321 388.081 337.141 387.504 336.823 386.867C336.544 386.229 336.106 385.632 335.509 385.075C334.951 384.517 334.235 384.059 333.358 383.701C332.522 383.342 331.507 383.163 330.312 383.163C328.64 383.163 327.166 383.641 325.892 384.597C324.618 385.552 323.722 386.886 323.204 388.599H337.36ZM352.294 384.418H347.157V377.728H352.294V368.768H360.119V377.728H367.286V384.418H360.119V395.766C360.119 396.443 360.178 397.08 360.298 397.678C360.457 398.235 360.736 398.713 361.134 399.111C361.691 399.748 362.488 400.067 363.523 400.067C364.2 400.067 364.738 400.007 365.136 399.888C365.534 399.728 365.912 399.529 366.271 399.29L368.481 406.159C367.565 406.597 366.569 406.916 365.494 407.115C364.459 407.354 363.304 407.473 362.03 407.473C360.557 407.473 359.223 407.254 358.028 406.816C356.873 406.339 355.898 405.701 355.101 404.905C353.23 403.113 352.294 400.565 352.294 397.26V384.418ZM385.213 407.951C383.302 407.951 381.59 407.712 380.076 407.235C378.603 406.757 377.309 406.139 376.194 405.383C375.119 404.586 374.203 403.691 373.446 402.695C372.69 401.66 372.112 400.624 371.714 399.589L378.703 396.603C379.38 398.116 380.275 399.251 381.39 400.007C382.545 400.724 383.819 401.082 385.213 401.082C386.647 401.082 387.782 400.823 388.618 400.306C389.454 399.788 389.872 399.171 389.872 398.454C389.872 397.658 389.514 397.021 388.797 396.543C388.12 396.025 386.925 395.567 385.213 395.169L381.092 394.273C380.176 394.074 379.22 393.755 378.225 393.317C377.269 392.879 376.393 392.322 375.597 391.645C374.8 390.968 374.143 390.152 373.626 389.196C373.108 388.24 372.849 387.125 372.849 385.851C372.849 384.418 373.148 383.143 373.745 382.028C374.382 380.913 375.238 379.978 376.313 379.221C377.389 378.425 378.643 377.827 380.076 377.429C381.55 376.991 383.123 376.772 384.795 376.772C387.582 376.772 390.071 377.33 392.261 378.445C394.451 379.52 396.064 381.252 397.1 383.641L390.35 386.389C389.793 385.234 388.976 384.398 387.901 383.88C386.826 383.362 385.751 383.104 384.676 383.104C383.561 383.104 382.585 383.342 381.749 383.82C380.913 384.258 380.495 384.836 380.495 385.552C380.495 386.229 380.833 386.767 381.51 387.165C382.227 387.563 383.182 387.922 384.377 388.24L388.857 389.315C391.843 390.032 394.053 391.187 395.487 392.78C396.96 394.333 397.697 396.184 397.697 398.335C397.697 399.609 397.398 400.823 396.801 401.978C396.204 403.133 395.347 404.168 394.232 405.084C393.157 405.96 391.843 406.657 390.29 407.175C388.777 407.692 387.085 407.951 385.213 407.951Z" fill="#858585"/>
<defs>
<linearGradient id="paint0_linear_283_595" x1="276.706" y1="87.8089" x2="276.706" y2="163.075" gradientUnits="userSpaceOnUse">
<stop stop-color="#263238" stop-opacity="0.2"/>
<stop offset="1" stop-color="#263238" stop-opacity="0.02"/>
</linearGradient>
<radialGradient id="paint1_radial_283_595" cx="0" cy="0" r="1" gradientUnits="userSpaceOnUse" gradientTransform="translate(88.5161 11.8702) scale(381.778 381.778)">
<stop stop-color="white" stop-opacity="0.1"/>
<stop offset="1" stop-color="white" stop-opacity="0"/>
</radialGradient>
<clipPath id="clip0_283_595">
<rect width="236.803" height="325.605" fill="white" transform="translate(81.1191)"/>
</clipPath>
</defs>
</svg>
