<svg width="208" height="246" viewBox="0 0 208 246" fill="none" xmlns="http://www.w3.org/2000/svg">
<path d="M121.5 8.8125C126.852 8.8125 131.984 11.1336 135.768 15.2653C139.553 19.397 141.679 25.0007 141.679 30.8438V35.25H101.321V30.8438C101.321 25.0007 103.447 19.397 107.232 15.2653C111.016 11.1336 116.148 8.8125 121.5 8.8125ZM149.75 35.25V30.8438C149.75 22.6635 146.774 14.8183 141.476 9.03393C136.178 3.2496 128.992 0 121.5 0C114.008 0 106.822 3.2496 101.524 9.03393C96.2263 14.8183 93.25 22.6635 93.25 30.8438V35.25H65V123.375C65 128.049 66.7008 132.532 69.7281 135.838C72.7555 139.143 76.8615 141 81.1429 141H161.857C166.138 141 170.244 139.143 173.272 135.838C176.299 132.532 178 128.049 178 123.375V35.25H149.75Z" fill="#FFC700"/>
<path d="M195.778 148.578L207.936 81.715C208.041 81.1386 208.018 80.5461 207.868 79.9796C207.719 79.4132 207.447 78.8864 207.071 78.4366C206.696 77.9869 206.226 77.6251 205.695 77.3768C205.165 77.1286 204.586 76.9999 204 77H39.338L33.858 46.854C33.3565 44.0882 31.8994 41.5864 29.7413 39.7853C27.5831 37.9843 24.8609 36.9985 22.05 37H4C2.93913 37 1.92172 37.4214 1.17157 38.1716C0.421427 38.9217 0 39.9391 0 41C0 42.0609 0.421427 43.0783 1.17157 43.8284C1.92172 44.5786 2.93913 45 4 45H22.05C22.9869 44.9995 23.8942 45.328 24.6136 45.9282C25.3329 46.5284 25.8187 47.3622 25.986 48.284L53.866 201.62C49.9447 204.476 46.9807 208.453 45.3647 213.027C43.7487 217.601 43.5566 222.557 44.8136 227.243C46.0707 231.928 48.7179 236.122 52.4064 239.273C56.0948 242.424 60.6515 244.383 65.4757 244.893C70.2999 245.402 75.1653 244.438 79.4307 242.127C83.696 239.817 87.161 236.268 89.3691 231.948C91.5772 227.629 92.4247 222.742 91.7998 217.931C91.175 213.12 89.1072 208.612 85.869 205H154.131C150.47 209.095 148.326 214.322 148.056 219.808C147.786 225.294 149.407 230.706 152.648 235.141C155.888 239.575 160.553 242.763 165.862 244.172C171.171 245.58 176.802 245.124 181.815 242.88C186.828 240.636 190.919 236.739 193.405 231.841C195.89 226.943 196.619 221.34 195.47 215.969C194.321 210.598 191.363 205.784 187.092 202.331C182.82 198.879 177.493 196.997 172 197H61.156L55.338 165H176.102C180.786 165.002 185.322 163.358 188.918 160.357C192.514 157.356 194.942 153.187 195.778 148.578ZM84 221C84 224.165 83.0616 227.258 81.3035 229.889C79.5454 232.52 77.0465 234.571 74.1229 235.782C71.1993 236.993 67.9823 237.31 64.8786 236.693C61.7749 236.075 58.9239 234.551 56.6863 232.314C54.4487 230.076 52.9248 227.225 52.3074 224.121C51.6901 221.018 52.0069 217.801 53.2179 214.877C54.4289 211.953 56.4797 209.455 59.1109 207.696C61.7421 205.938 64.8355 205 68 205C72.242 205.005 76.3089 206.692 79.3084 209.692C82.308 212.691 83.9952 216.758 84 221ZM188 221C188 224.165 187.062 227.258 185.304 229.889C183.545 232.52 181.047 234.571 178.123 235.782C175.199 236.993 171.982 237.31 168.879 236.693C165.775 236.075 162.924 234.551 160.686 232.314C158.449 230.076 156.925 227.225 156.307 224.121C155.69 221.018 156.007 217.801 157.218 214.877C158.429 211.953 160.48 209.455 163.111 207.696C165.742 205.938 168.835 205 172 205C176.242 205.005 180.309 206.692 183.308 209.692C186.308 212.691 187.995 216.758 188 221ZM40.793 85H199.207L187.907 147.147C187.406 149.912 185.949 152.414 183.791 154.214C181.634 156.015 178.912 157.001 176.102 157H53.884L40.793 85Z" fill="black"/>
</svg>
